<svg xmlns="http://www.w3.org/2000/svg" viewBox="0 0 680 390" width="680" height="390" role="img" aria-labelledby="title desc">
<title id="title">Lenguajes en repositorios publicos de bvnyamin</title>
<desc id="desc">Grafico radial de la distribucion relativa de bytes por lenguaje, con escala de raiz cuadrada para hacer visibles los lenguajes menos usados. No expresa nivel de dominio.</desc>
<rect width="680" height="390" rx="20" fill="#171827"/>
<text x="340" y="35" text-anchor="middle" fill="#e9e7f2" font-family="ui-monospace,Consolas,monospace" font-size="16" font-weight="700">LENGUAJES · REPOS PUBLICOS</text>
<polygon points="340.0,182.0 367.6,202.0 357.0,234.5 323.0,234.5 312.4,202.0" fill="none" stroke="#3d405a" stroke-width="1"/>
<polygon points="340.0,153.0 395.2,193.1 374.1,257.9 305.9,257.9 284.8,193.1" fill="none" stroke="#3d405a" stroke-width="1"/>
<polygon points="340.0,124.0 422.7,184.1 391.1,281.4 288.9,281.4 257.3,184.1" fill="none" stroke="#3d405a" stroke-width="1"/>
<polygon points="340.0,95.0 450.3,175.2 408.2,304.8 271.8,304.8 229.7,175.2" fill="none" stroke="#3d405a" stroke-width="1"/>
<line x1="340" y1="211" x2="340.0" y2="95.0" stroke="#3d405a" stroke-width="1"/>
<line x1="340" y1="211" x2="450.3" y2="175.2" stroke="#3d405a" stroke-width="1"/>
<line x1="340" y1="211" x2="408.2" y2="304.8" stroke="#3d405a" stroke-width="1"/>
<line x1="340" y1="211" x2="271.8" y2="304.8" stroke="#3d405a" stroke-width="1"/>
<line x1="340" y1="211" x2="229.7" y2="175.2" stroke="#3d405a" stroke-width="1"/>
<polygon points="340.0,95.0 375.7,199.4 360.0,238.5 328.9,226.2 323.7,205.7" fill="#63dfd0" fill-opacity=".18" stroke="#63dfd0" stroke-width="3" stroke-linejoin="round"/>
<circle cx="340.0" cy="95.0" r="4" fill="#fa83b8" stroke="#171827" stroke-width="2"/>
<text x="340.0" y="67.0" text-anchor="middle" fill="#e9e7f2" font-family="ui-monospace,Consolas,monospace" font-size="14">Python</text>
<circle cx="375.7" cy="199.4" r="4" fill="#fa83b8" stroke="#171827" stroke-width="2"/>
<text x="481.7" y="170.0" text-anchor="start" fill="#e9e7f2" font-family="ui-monospace,Consolas,monospace" font-size="14">TypeScript</text>
<circle cx="360.0" cy="238.5" r="4" fill="#fa83b8" stroke="#171827" stroke-width="2"/>
<text x="427.6" y="336.5" text-anchor="start" fill="#e9e7f2" font-family="ui-monospace,Consolas,monospace" font-size="14">JavaScript</text>
<circle cx="328.9" cy="226.2" r="4" fill="#fa83b8" stroke="#171827" stroke-width="2"/>
<text x="252.4" y="336.5" text-anchor="end" fill="#e9e7f2" font-family="ui-monospace,Consolas,monospace" font-size="14">PHP</text>
<circle cx="323.7" cy="205.7" r="4" fill="#fa83b8" stroke="#171827" stroke-width="2"/>
<text x="198.3" y="170.0" text-anchor="end" fill="#e9e7f2" font-family="ui-monospace,Consolas,monospace" font-size="14">C++</text>
<text x="340" y="372" text-anchor="middle" fill="#a4a8c2" font-family="Segoe UI,Arial,sans-serif" font-size="12">bytes de codigo · escala relativa comprimida · generado desde GitHub</text>
</svg>